<svg xmlns="http://www.w3.org/2000/svg" xmlns:xlink="http://www.w3.org/1999/xlink" viewBox="0 0 64 64"><defs><style>.cls-1,.cls-2{fill:#1a1a1a;}.cls-1{opacity:0;}.cls-3{fill:url(#linear-gradient);}.cls-4{fill:#fdaf18;}.cls-5{fill:#fff;}.cls-6{fill:#ffef80;}.cls-7{fill:#c62d43;}</style><linearGradient id="linear-gradient" x1="32" y1="59.2" x2="32" y2="4.8" gradientUnits="userSpaceOnUse"><stop offset="0" stop-color="#fec92b"/><stop offset="0.4" stop-color="#fec92b"/><stop offset="0.9" stop-color="#37b9ff"/></linearGradient></defs><title>Face screaming in fear</title><g id="Layer_2" data-name="Layer 2"><g id="Rough"><rect class="cls-1" width="64" height="64"/><path class="cls-2" d="M63.19,32.06c.09-6.48.34-23.69-14.31-29.17C44,1.06,38.82.8,34,.8H30.64C21,.8,7.69,2.29,2.88,15.13.88,20.49.76,26,.81,32a65.2,65.2,0,0,0,.41,8.92c0,.4.1.82.15,1.19,0,0,0,.1,0,.13.17,1.16.41,2.42.67,3.75A63.78,63.78,0,0,1,3.42,56a6,6,0,0,0,3.24,5.15c2.4,1.23,6.77,2.69,14,2.69h1A6,6,0,0,0,24.5,63c2.11.16,4.12.18,5.73.18h3.06c2.29,0,4.37-.09,6.3-.28a6,6,0,0,0,3,.87h1c7.22,0,11.59-1.46,14-2.69A6,6,0,0,0,60.83,56a64.41,64.41,0,0,1,1.35-10,32.15,32.15,0,0,0,.92-7.68C63.21,36.14,63.21,34,63.19,32.06Z"/><path class="cls-3" d="M59.19,32h0C59.34,21.86,58,10.57,47.47,6.63,42.57,4.8,37.21,4.77,32,4.81h0C21.86,4.67,10.57,6,6.63,16.53,4.8,21.43,4.76,26.8,4.81,32h0C4.66,42.14,6,53.44,16.53,57.37c4.9,1.84,10.26,1.87,15.47,1.82h0c10.14.15,21.43-1.19,25.37-11.71C59.2,42.58,59.24,37.21,59.19,32Z"/><path class="cls-4" d="M32,53.73A45.89,45.89,0,0,1,6.24,45.65c1.51,5.18,4.51,9.56,10.29,11.72,4.9,1.84,10.26,1.87,15.47,1.82h0c10.14.15,21.43-1.19,25.37-11.71a20.4,20.4,0,0,0,.64-2A45.85,45.85,0,0,1,32,53.73Z"/><ellipse class="cls-5" cx="43.8" cy="23.45" rx="8.57" ry="9.88" transform="translate(-3.75 37.84) rotate(-45)"/><ellipse class="cls-5" cx="20.2" cy="23.45" rx="9.88" ry="8.57" transform="translate(-10.66 21.16) rotate(-45)"/><path class="cls-6" d="M42.65,59.79a2,2,0,0,1-1.88-2.42c1.55-6.66,6.85-25.06,17.2-20.9,3.07,1.23-.84,9.93-1.14,19.37a2,2,0,0,1-1.06,1.71C54,58.44,50,59.93,42.65,59.79Z"/><path class="cls-6" d="M21.6,59.79a2,2,0,0,0,1.88-2.42c-1.55-6.66-6.85-25.06-17.2-20.9-3.07,1.23.84,9.93,1.14,19.37a2,2,0,0,0,1.06,1.71C10.21,58.44,14.25,59.93,21.6,59.79Z"/><path class="cls-2" d="M38.58,45.77a9.52,9.52,0,0,0,.27-2.26c0-4.66-3.07-9.45-6.85-9.45s-6.85,4.79-6.85,9.45a9.52,9.52,0,0,0,.27,2.26A11.42,11.42,0,0,1,32,43.9,11.42,11.42,0,0,1,38.58,45.77Z"/><path class="cls-7" d="M32,51a6.59,6.59,0,0,0,6.58-5.19A11.42,11.42,0,0,0,32,43.9a11.42,11.42,0,0,0-6.58,1.87A6.59,6.59,0,0,0,32,51Z"/></g></g></svg>