<svg xmlns="http://www.w3.org/2000/svg" viewBox="0 0 64 64"><defs><style>.cls-1,.cls-2{fill:#1a1a1a;}.cls-1{opacity:0;}.cls-3{fill:#fec92b;}.cls-4{fill:#fdaf18;}.cls-5{fill:#fc9504;}.cls-6{fill:#fff;}.cls-7{fill:#c62d43;}.cls-8{fill:#37b9ff;}.cls-9{fill:#1778ff;}.cls-10{fill:#96dbff;}</style></defs><title>Loudly crying face</title><g id="Layer_2" data-name="Layer 2"><g id="Rough"><rect class="cls-1" width="64" height="64"/><path class="cls-2" d="M49.05,2.6C44.11.75,38.89.5,34,.5H30.62C20.92.5,7.45,2,2.6,15c-2,5.42-2.14,10.94-2.09,17C.4,39.69,1.07,49,6.57,55.53a5.8,5.8,0,0,0-.44,2.2c0,5.79,6.59,5.79,9.41,5.79l3.09,0,3,0a28.15,28.15,0,0,0,3.46-.16c1.5.1,3.14.14,5.13.14h3c2,0,3.74-.06,5.44-.2a25.34,25.34,0,0,0,3.91.22l3,0,3.08,0a20,20,0,0,0,4.89-.42,5.52,5.52,0,0,0,4.52-5.37,5.77,5.77,0,0,0-.5-2.31,20.53,20.53,0,0,0,3.78-6.37c2-5.42,2.14-10.94,2.09-17C63.58,25.52,63.84,8.14,49.05,2.6Z"/><path class="cls-3" d="M59.49,32h0c.15-10.25-1.21-21.67-11.85-25.65C42.69,4.49,37.26,4.46,32,4.51h0C21.75,4.36,10.33,5.72,6.35,16.36,4.49,21.31,4.46,26.74,4.51,32h0C4.36,42.25,5.72,53.67,16.36,57.65c4.95,1.86,10.38,1.89,15.64,1.84h0c10.25.15,21.67-1.21,25.65-11.85C59.51,42.69,59.54,37.26,59.49,32Z"/><path class="cls-4" d="M32,54A46.35,46.35,0,0,1,6,45.79C7.48,51,10.52,55.47,16.36,57.65c4.95,1.86,10.38,1.89,15.64,1.84h0c10.25.15,21.67-1.21,25.65-11.85.25-.66.46-1.34.65-2A46.44,46.44,0,0,1,32,54Z"/><ellipse class="cls-4" cx="51" cy="34.49" rx="5.56" ry="3.55"/><ellipse class="cls-4" cx="13" cy="34.49" rx="5.56" ry="3.55"/><path class="cls-5" d="M23.58,16.7A20.59,20.59,0,0,0,18,17.84,17.8,17.8,0,0,0,15.44,19c-.83.45-1.63,1-2.53,1.57l-.07.05a1.17,1.17,0,0,1-1.61-.33,1.2,1.2,0,0,1-.13-1,8.9,8.9,0,0,1,5.49-5.2,9.15,9.15,0,0,1,7.53.46,1.15,1.15,0,0,1,.43,1.58,1.19,1.19,0,0,1-.9.58Z"/><path class="cls-5" d="M51.09,20.58a20.52,20.52,0,0,0-5-2.74,18.22,18.22,0,0,0-2.68-.72c-.92-.19-1.88-.29-2.95-.42h-.08a1.16,1.16,0,0,1-.46-2.15,8.89,8.89,0,0,1,7.53-.46,9.22,9.22,0,0,1,5.49,5.2,1.16,1.16,0,0,1-1.75,1.35Z"/><path class="cls-2" d="M37.7,46.44A8.65,8.65,0,0,0,37.82,45,12,12,0,0,0,36,38.76a16,16,0,0,1-7.79,0A12,12,0,0,0,26.43,45a7.73,7.73,0,0,0,.13,1.49,12.88,12.88,0,0,1,5.57-1.09A12.91,12.91,0,0,1,37.7,46.44Z"/><path class="cls-6" d="M36,38.76c-1-1.6-2.38-2.71-3.89-2.71s-2.88,1.11-3.9,2.71a16,16,0,0,0,7.79,0Z"/><path class="cls-7" d="M32.13,51a5.25,5.25,0,0,0,5.57-4.52,12.91,12.91,0,0,0-5.57-1.09,12.88,12.88,0,0,0-5.57,1.09A5.24,5.24,0,0,0,32.13,51Z"/><path class="cls-8" d="M49.86,54.47a131.65,131.65,0,0,0-2.8-28.57,25.63,25.63,0,0,0-5.79-.85,229.91,229.91,0,0,1-1.55,30c-1.59.68-2.59,1.64-2.59,2.7,0,2.08,3.8,1.77,8.5,1.77s8.49.31,8.49-1.77C54.12,56.34,52.4,55.12,49.86,54.47Z"/><path class="cls-8" d="M14.39,54.47a131.65,131.65,0,0,1,2.8-28.57A25.63,25.63,0,0,1,23,25.05a229.91,229.91,0,0,0,1.55,30c1.59.68,2.59,1.64,2.59,2.7,0,2.08-3.8,1.77-8.49,1.77s-8.5.31-8.5-1.77C10.13,56.34,11.85,55.12,14.39,54.47Z"/><path class="cls-9" d="M15.14,38.76A123.88,123.88,0,0,1,17.19,25.9,25.63,25.63,0,0,1,23,25.05s-.09,3.67.06,9.27a2.45,2.45,0,0,0-2.95-1.55C18,33.2,16.23,35.9,15.14,38.76Z"/><path class="cls-10" d="M18.77,56.87c0,.76,1.08.93,2.43.93s2.43-.17,2.43-.93-1.09-1.38-2.43-1.38S18.77,56.11,18.77,56.87Z"/><path class="cls-9" d="M49.12,38.76a123.88,123.88,0,0,0-2-12.86,25.63,25.63,0,0,0-5.79-.85s.09,3.67-.06,9.27a2.45,2.45,0,0,1,3-1.55C46.31,33.2,48,35.9,49.12,38.76Z"/><path class="cls-10" d="M51.49,56.87c0,.76-1.08.93-2.43.93s-2.43-.17-2.43-.93,1.09-1.38,2.43-1.38S51.49,56.11,51.49,56.87Z"/><path class="cls-2" d="M26.32,27.36A20.65,20.65,0,0,0,20.59,27a18.37,18.37,0,0,0-2.73.48c-.92.23-1.83.53-2.85.87l-.08,0a1.16,1.16,0,0,1-1.47-.74,1.21,1.21,0,0,1,.14-1A8.92,8.92,0,0,1,20.24,23a9.21,9.21,0,0,1,7.16,2.39,1.16,1.16,0,0,1,0,1.64,1.13,1.13,0,0,1-1,.32Z"/><path class="cls-2" d="M49,28.35A20.31,20.31,0,0,0,43.41,27a18.29,18.29,0,0,0-2.77,0c-.94.06-1.9.21-3,.36H37.6a1.15,1.15,0,0,1-1.32-1,1.19,1.19,0,0,1,.32-1A8.87,8.87,0,0,1,43.76,23a9.17,9.17,0,0,1,6.64,3.6,1.17,1.17,0,0,1-1.35,1.76Z"/></g></g></svg>