<svg xmlns="http://www.w3.org/2000/svg" viewBox="0 0 64 64"><defs><style>.cls-1,.cls-2{fill:#1a1a1a;}.cls-1{opacity:0;}.cls-3{fill:#fec92b;}.cls-4{fill:#fdaf18;}.cls-5{fill:#fff;}.cls-6{fill:#d1523f;}</style></defs><title>Angry face</title><g id="Layer_2" data-name="Layer 2"><g id="Rough"><rect class="cls-1" width="64" height="64"/><path class="cls-2" d="M49.05,2.6C44.11.75,38.89.5,34,.5H30.63C20.92.5,7.45,2,2.6,15c-2,5.42-2.14,10.94-2.09,17C.42,38.48.16,55.86,15,61.4c4.94,1.85,10.16,2.1,15.06,2.1h3.36c9.71,0,23.18-1.5,28-14.45,2-5.42,2.14-10.94,2.09-17C63.58,25.52,63.84,8.14,49.05,2.6Z"/><path class="cls-3" d="M59.49,32h0c.15-10.25-1.21-21.67-11.85-25.65C42.69,4.49,37.26,4.46,32,4.51h0C21.75,4.36,10.33,5.72,6.35,16.36,4.49,21.31,4.46,26.74,4.51,32h0C4.36,42.25,5.72,53.67,16.36,57.65c4.95,1.86,10.38,1.89,15.64,1.84h0c10.25.15,21.67-1.21,25.65-11.85C59.51,42.69,59.54,37.26,59.49,32Z"/><path class="cls-4" d="M32,54A46.35,46.35,0,0,1,6,45.79C7.48,51,10.52,55.47,16.36,57.65c4.95,1.86,10.38,1.89,15.64,1.84h0c10.25.15,21.67-1.21,25.65-11.85.25-.66.46-1.34.65-2A46.44,46.44,0,0,1,32,54Z"/><ellipse class="cls-4" cx="51" cy="39.49" rx="5.56" ry="3.55"/><ellipse class="cls-4" cx="13" cy="39.49" rx="5.56" ry="3.55"/><circle class="cls-5" cx="44.5" cy="31.37" r="7.78"/><circle class="cls-5" cx="19.5" cy="31.37" r="7.78"/><circle class="cls-2" cx="42.34" cy="31.37" r="4.52"/><circle class="cls-2" cx="21.66" cy="31.37" r="4.52"/><path class="cls-6" d="M50.37,22.56c-1.18.22-2.31.45-3.43.75a33,33,0,0,0-3.29,1,31.44,31.44,0,0,0-6.1,3l-.3.19A1.66,1.66,0,0,1,35,27a1.56,1.56,0,0,1-.23-.57c-.11-.59-.18-1.2-.26-1.8s-.11-1.22-.11-1.85a1.17,1.17,0,0,1,1.17-1.16,1.23,1.23,0,0,1,1,.54c.33.53.61,1.08.88,1.62s.53,1.11.75,1.67l-2.81-.9a15.4,15.4,0,0,1,3.36-2.38,19.07,19.07,0,0,1,3.76-1.51,18.67,18.67,0,0,1,4-.66,13.37,13.37,0,0,1,4,.38,1.14,1.14,0,0,1-.08,2.23Z"/><path class="cls-6" d="M13.51,20.33a13.69,13.69,0,0,1,4-.37,18,18,0,0,1,4,.65,18.91,18.91,0,0,1,3.77,1.51,15.32,15.32,0,0,1,3.37,2.37l-2.83.9a21.36,21.36,0,0,1,1.64-3.28,1.18,1.18,0,0,1,1.61-.36,1.21,1.21,0,0,1,.54,1,20.91,20.91,0,0,1-.36,3.65,1.65,1.65,0,0,1-1.9,1.35,1.62,1.62,0,0,1-.59-.23l-.33-.21a31.3,31.3,0,0,0-2.95-1.64,31,31,0,0,0-3.14-1.32,39.13,39.13,0,0,0-6.73-1.77h0a1.14,1.14,0,0,1-.09-2.23Z"/><path class="cls-2" d="M40.29,47.7a29.63,29.63,0,0,0-4.15-1.25A20,20,0,0,0,32,46a21.38,21.38,0,0,0-4.13.44,34,34,0,0,0-4.16,1.22l0,0a1.16,1.16,0,0,1-1.47-.7,1.18,1.18,0,0,1,.25-1.17A11.8,11.8,0,0,1,26.8,43a14.43,14.43,0,0,1,5.2-1,13.59,13.59,0,0,1,9.54,3.8,1.14,1.14,0,0,1-1.21,1.87Z"/></g></g></svg>