<svg xmlns="http://www.w3.org/2000/svg" xmlns:xlink="http://www.w3.org/1999/xlink" viewBox="0 0 64 64"><defs><style>.cls-1,.cls-2{fill:#1a1a1a;}.cls-1{opacity:0;}.cls-3{fill:url(#linear-gradient);}.cls-4{fill:#fdaf18;}.cls-5{fill:#e62e49;}.cls-6{fill:#fff;}.cls-7{fill:#a72d3e;}</style><linearGradient id="linear-gradient" x1="32" y1="59.5" x2="32" y2="4.5" gradientUnits="userSpaceOnUse"><stop offset="0" stop-color="#fec92b"/><stop offset="0.1" stop-color="#fec92b"/><stop offset="1" stop-color="#e62e49"/></linearGradient></defs><title>Face with symbols on mouth</title><g id="Layer_2" data-name="Layer 2"><g id="Rough"><rect class="cls-1" width="64" height="64"/><path class="cls-2" d="M49.05,2.6C44.11.75,38.89.5,34,.5H30.63C20.92.5,7.45,2,2.6,15c-2,5.42-2.14,10.94-2.09,17C.42,38.48.16,55.86,15,61.4c4.94,1.85,10.16,2.1,15.06,2.1h3.36c9.71,0,23.18-1.5,28-14.45,2-5.42,2.14-10.94,2.09-17C63.58,25.52,63.84,8.14,49.05,2.6Z"/><path class="cls-3" d="M59.49,32h0c.15-10.25-1.21-21.67-11.85-25.65C42.69,4.49,37.26,4.46,32,4.51h0C21.75,4.36,10.33,5.72,6.35,16.36,4.49,21.31,4.46,26.74,4.51,32h0C4.36,42.25,5.72,53.67,16.36,57.65c4.95,1.86,10.38,1.89,15.64,1.84h0c10.25.15,21.67-1.21,25.65-11.85C59.51,42.69,59.54,37.26,59.49,32Z"/><path class="cls-4" d="M32,54A46.35,46.35,0,0,1,6,45.79C7.48,51,10.52,55.47,16.36,57.65c4.95,1.86,10.38,1.89,15.64,1.84h0c10.25.15,21.67-1.21,25.65-11.85.25-.66.46-1.34.65-2A46.44,46.44,0,0,1,32,54Z"/><ellipse class="cls-5" cx="51" cy="39.49" rx="5.56" ry="3.55"/><ellipse class="cls-5" cx="13" cy="39.49" rx="5.56" ry="3.55"/><circle class="cls-6" cx="44.5" cy="31.37" r="7.78"/><circle class="cls-6" cx="19.5" cy="31.37" r="7.78"/><circle class="cls-2" cx="42.34" cy="31.37" r="4.52"/><circle class="cls-2" cx="21.66" cy="31.37" r="4.52"/><path class="cls-7" d="M50.37,22.56c-1.18.22-2.31.45-3.43.75a33,33,0,0,0-3.29,1,31.44,31.44,0,0,0-6.1,3l-.3.19A1.66,1.66,0,0,1,35,27a1.56,1.56,0,0,1-.23-.57c-.11-.59-.18-1.2-.26-1.8s-.11-1.22-.11-1.85a1.17,1.17,0,0,1,1.17-1.16,1.23,1.23,0,0,1,1,.54c.33.53.61,1.08.88,1.62s.53,1.11.75,1.67l-2.81-.9a15.4,15.4,0,0,1,3.36-2.38,19.07,19.07,0,0,1,3.76-1.51,18.67,18.67,0,0,1,4-.66,13.37,13.37,0,0,1,4,.38,1.14,1.14,0,0,1-.08,2.23Z"/><path class="cls-7" d="M13.51,20.33a13.69,13.69,0,0,1,4-.37,18,18,0,0,1,4,.65,18.91,18.91,0,0,1,3.77,1.51,15.32,15.32,0,0,1,3.37,2.37l-2.83.9a21.36,21.36,0,0,1,1.64-3.28,1.18,1.18,0,0,1,1.61-.36,1.21,1.21,0,0,1,.54,1,20.91,20.91,0,0,1-.36,3.65,1.65,1.65,0,0,1-1.9,1.35,1.62,1.62,0,0,1-.59-.23l-.33-.21a31.3,31.3,0,0,0-2.95-1.64,31,31,0,0,0-3.14-1.32,39.13,39.13,0,0,0-6.73-1.77h0a1.14,1.14,0,0,1-.09-2.23Z"/><path class="cls-2" d="M40.29,47.7a29.63,29.63,0,0,0-4.15-1.25A20,20,0,0,0,32,46a21.38,21.38,0,0,0-4.13.44,34,34,0,0,0-4.16,1.22l0,0a1.16,1.16,0,0,1-1.47-.7,1.18,1.18,0,0,1,.25-1.17A11.8,11.8,0,0,1,26.8,43a14.43,14.43,0,0,1,5.2-1,13.59,13.59,0,0,1,9.54,3.8,1.14,1.14,0,0,1-1.21,1.87Z"/><rect class="cls-2" x="13.74" y="40.09" width="36.77" height="13.91" rx="2"/><path class="cls-6" d="M19.6,48.48c-.07.13-.4.21-1,.23a2.7,2.7,0,0,1-1.22-.15c-.11-.06-.19-.32-.26-.8s-.13-1-.16-1.6-.06-1.15-.07-1.7a9.34,9.34,0,0,1,0-1.09c0-.16.18-.27.48-.35a4.22,4.22,0,0,1,1-.13,4.32,4.32,0,0,1,1,.08c.3.06.46.15.48.28a12.23,12.23,0,0,1,.08,1.38c0,.56,0,1.11,0,1.66s-.07,1-.13,1.45A1.94,1.94,0,0,1,19.6,48.48Zm-1.35,3.2a1.39,1.39,0,0,1-.77-.39,1.36,1.36,0,0,1-.37-.78,1.39,1.39,0,0,1,2.53-.89,1.37,1.37,0,0,1,.17,1,1.54,1.54,0,0,1-.51.85A1.24,1.24,0,0,1,18.25,51.68Z"/><path class="cls-6" d="M30,46.67a.5.5,0,0,1-.28,0,4.83,4.83,0,0,0-.54,0c0,.19,0,.42,0,.68s0,.48,0,.68h.69c.13,0,.23.13.31.38a2.88,2.88,0,0,1,.11.81,2.82,2.82,0,0,1-.12.83c-.08.25-.2.4-.38.43l-.31,0H29q-.09.93-.21,1a2.07,2.07,0,0,1-1.1.15c-.5,0-.78-.12-.83-.27a2.65,2.65,0,0,1-.14-.87h-.64l-.65,0a3.29,3.29,0,0,1-.13.89c-.06.15-.36.24-.89.27a2.14,2.14,0,0,1-1.13-.15c-.09,0-.17-.43-.24-1.13-.7,0-1.08,0-1.14-.13a2.22,2.22,0,0,1-.15-1.16c0-.55.11-.85.26-.92a.9.9,0,0,1,.31,0l.59,0c0-.2,0-.43,0-.69v-.69h-.78c-.13,0-.23-.13-.29-.37a2.58,2.58,0,0,1-.09-.81,2.77,2.77,0,0,1,.13-.83c.09-.25.22-.4.39-.43l.64,0a3.54,3.54,0,0,1,0-.59c0-.18.18-.3.44-.39a3.36,3.36,0,0,1,.85-.14,3.1,3.1,0,0,1,.83.1c.25.07.38.16.38.29s0,.23,0,.35,0,.25,0,.38l.61,0h.62c0-.3,0-.55,0-.76s.13-.23.37-.3a2.94,2.94,0,0,1,.81-.11,2.84,2.84,0,0,1,.84.12c.26.08.41.2.44.38s0,.47,0,.81a6.49,6.49,0,0,0,.65.05c.17,0,.27,0,.3.07a2.21,2.21,0,0,1,.14,1.18Q30.22,46.6,30,46.67ZM26.75,48c0-.17,0-.38,0-.63v-.64H25.36V48h1.39Z"/><path class="cls-6" d="M34.07,43.26c0-.15.34-.25.85-.28a2,2,0,0,1,1.09.15,2,2,0,0,1,.19.84l.35.22a2.14,2.14,0,0,1,.75,1.05v0s0,0,0,0a.53.53,0,0,1-.24.4,1.68,1.68,0,0,1-.67.33,3.34,3.34,0,0,1-.78.12.28.28,0,0,1-.17,0,.29.29,0,0,1-.09-.16.39.39,0,0,0-.1-.16.3.3,0,0,0-.18-.06.59.59,0,0,0-.44.19c-.15.13,0,.24.34.32l.32.06a3.76,3.76,0,0,1,1.63.64A2,2,0,0,1,37.76,49a2.34,2.34,0,0,1-1.53,1.77,2.48,2.48,0,0,1-.11.63c-.06.16-.35.25-.86.28a2,2,0,0,1-1.08-.15q-.1-.06-.18-.72a2.47,2.47,0,0,1-1-.66,2.19,2.19,0,0,1-.59-1.07c-.06-.26.07-.46.38-.61a1.46,1.46,0,0,1,.43-.13,2.7,2.7,0,0,1,.48-.05,2.31,2.31,0,0,1,.67.09c.2.06.31.14.34.26s0,.05,0,.06a.32.32,0,0,0,.19.17.38.38,0,0,0,.28,0l.09,0,0,0a.3.3,0,0,0,.12-.13.25.25,0,0,0,0-.17h0v0a.46.46,0,0,0-.25-.14l-.51-.11c-.25-.05-.51-.12-.79-.19a2.24,2.24,0,0,1-.74-.37,1.81,1.81,0,0,1-.53-.7,2.48,2.48,0,0,1-.13-1.15,2.21,2.21,0,0,1,.91-1.61,2.42,2.42,0,0,1,.6-.34A2.84,2.84,0,0,1,34.07,43.26Z"/><path class="cls-6" d="M45.2,47.89a1.5,1.5,0,0,0,.14-.18s.06-.08.08-.09.24,0,.45.08a4.23,4.23,0,0,1,.65.45,3.79,3.79,0,0,1,.57.56c.15.19.22.32.2.4a1.68,1.68,0,0,1-.2.29c.17.22.26.36.25.43a1.77,1.77,0,0,1-.66,1c-.43.42-.73.62-.9.61a1.72,1.72,0,0,1-.59-.31.2.2,0,0,0-.09,0,4.18,4.18,0,0,1-2.19.51A3.35,3.35,0,0,1,40.84,51a2.36,2.36,0,0,1-.91-1.76,2.54,2.54,0,0,1,.7-1.9A2.23,2.23,0,0,1,40,46a2.79,2.79,0,0,1,.28-1.37,3.06,3.06,0,0,1,.93-1.07A2.65,2.65,0,0,1,42.6,43a2.86,2.86,0,0,1,1.79.4,2.93,2.93,0,0,1,1.09,1.21,2.57,2.57,0,0,1,.21,1.55,2.15,2.15,0,0,1-.84,1.39l.17.16Zm-2.3,1.78a.66.66,0,0,0,.61-.19.61.61,0,0,0,.17-.58.63.63,0,0,0-.57-.45.69.69,0,0,0-.51.11.63.63,0,0,0-.27.41.49.49,0,0,0,.12.46A.65.65,0,0,0,42.9,49.67Zm0-3.56a.51.51,0,0,0,.47-.16.48.48,0,0,0,.12-.46.47.47,0,0,0-.43-.36.45.45,0,0,0-.59.41C42.44,45.87,42.58,46.05,42.92,46.11Z"/></g></g></svg>