<svg xmlns="http://www.w3.org/2000/svg" viewBox="0 0 64 64"><defs><style>.cls-1,.cls-2{fill:#1a1a1a;}.cls-1{opacity:0;}.cls-3{fill:#fec92b;}.cls-4{fill:#fdaf18;}.cls-5{fill:#fff;}.cls-6{fill:#324652;}.cls-7{fill:#476475;}.cls-8{fill:#5d7c8c;}</style></defs><title>Smiling face with sunglasses</title><g id="Layer_2" data-name="Layer 2"><g id="Rough"><rect class="cls-1" width="64" height="64"/><path class="cls-2" d="M49.05,2.6C44.11.75,38.89.5,34,.5H30.63C20.92.5,7.45,2,2.6,15c-2,5.42-2.14,10.94-2.09,17C.42,38.48.16,55.86,15,61.4c4.94,1.85,10.16,2.1,15.06,2.1h3.36c9.71,0,23.18-1.5,28-14.45,2-5.42,2.14-10.94,2.09-17C63.58,25.52,63.84,8.14,49.05,2.6Z"/><path class="cls-3" d="M59.49,32h0c.15-10.25-1.21-21.67-11.85-25.65C42.69,4.49,37.26,4.46,32,4.51h0C21.75,4.36,10.33,5.72,6.35,16.36,4.49,21.31,4.46,26.74,4.51,32h0C4.36,42.25,5.72,53.67,16.36,57.65c4.95,1.86,10.38,1.89,15.64,1.84h0c10.25.15,21.67-1.21,25.65-11.85C59.51,42.69,59.54,37.26,59.49,32Z"/><path class="cls-4" d="M32,54A46.35,46.35,0,0,1,6,45.79C7.48,51,10.52,55.47,16.36,57.65c4.95,1.86,10.38,1.89,15.64,1.84h0c10.25.15,21.67-1.21,25.65-11.85.25-.66.46-1.34.65-2A46.44,46.44,0,0,1,32,54Z"/><ellipse class="cls-4" cx="51" cy="39.49" rx="5.56" ry="3.55"/><ellipse class="cls-4" cx="13" cy="39.49" rx="5.56" ry="3.55"/><circle class="cls-5" cx="44.5" cy="31.37" r="7.78"/><circle class="cls-5" cx="19.5" cy="31.37" r="7.78"/><circle class="cls-2" cx="42.34" cy="31.37" r="4.52"/><circle class="cls-2" cx="21.66" cy="31.37" r="4.52"/><path class="cls-2" d="M23.71,43.12a27.17,27.17,0,0,0,4.15,1.25,20,20,0,0,0,4.14.41,20.63,20.63,0,0,0,4.13-.44,32.28,32.28,0,0,0,4.16-1.22h0a1.16,1.16,0,0,1,1.47.69A1.18,1.18,0,0,1,41.54,45a11.68,11.68,0,0,1-4.34,2.85,14,14,0,0,1-5.2,1A13.5,13.5,0,0,1,22.46,45a1.14,1.14,0,0,1,0-1.61,1.12,1.12,0,0,1,1.19-.25Z"/><ellipse class="cls-4" cx="19.34" cy="15.76" rx="4.66" ry="2.79" transform="translate(-1.3 1.75) rotate(-5)"/><ellipse class="cls-4" cx="44.66" cy="15.76" rx="2.79" ry="4.66" transform="translate(25.07 58.87) rotate(-85)"/><path class="cls-6" d="M12.71,22.25a53,53,0,0,1,17.14,1.54,9.6,9.6,0,0,0,4.55-.06,55.58,55.58,0,0,1,14.73-1.67c3.18.08,6.36.13,9.54.2,1.31,0,1.64.41,1.66,1.89a9.61,9.61,0,0,1,0,1.78,2.9,2.9,0,0,1-.57,1.1c-.41.58-1,1-1.25,1.7-.56,1.78-1,3.63-1.38,5.47-1,4.38-2.58,6.13-6.6,6.44a56.29,56.29,0,0,1-8.11,0,6.63,6.63,0,0,1-5.74-4.42c-.84-1.94-1.5-4-2.23-6a2.54,2.54,0,0,0-4.81,0c-.54,1.52-1.08,3.05-1.6,4.57-1.26,3.67-3.59,5.87-7.15,6a63.3,63.3,0,0,1-8.7-.35c-2.54-.26-4.17-2-4.87-4.78-.5-2-.89-4-1.41-5.93-.29-1.11-.51-2.33-1.74-2.79-.22-.09-.43-.61-.44-.93-.11-3.56-.2-3.8,2.8-3.74C8.56,22.28,10.64,22.25,12.71,22.25Z"/><path class="cls-7" d="M19.26,28.9a3.43,3.43,0,0,1,1-2.43,52.79,52.79,0,0,0-9.15-.12,1.7,1.7,0,0,0-1.55,1.91,28.49,28.49,0,0,0,1.71,6.81,1.73,1.73,0,0,0,1.4,1.08,74.53,74.53,0,0,0,8.65.32,1.71,1.71,0,0,0,1.36-.73,23,23,0,0,0,2.21-4.23,3.38,3.38,0,0,1-2.21.82A3.43,3.43,0,0,1,19.26,28.9Z"/><path class="cls-7" d="M51.31,32.33a3.42,3.42,0,0,1-3.43-3.43,3.37,3.37,0,0,1,1.33-2.69,60.61,60.61,0,0,0-9.62.79,1.69,1.69,0,0,0-1.33,2.19,25.45,25.45,0,0,0,3.05,6.55,1.71,1.71,0,0,0,1.36.73,74.53,74.53,0,0,0,8.65-.32,1.73,1.73,0,0,0,1.4-1.08,25.4,25.4,0,0,0,1.21-4A3.41,3.41,0,0,1,51.31,32.33Z"/><path class="cls-8" d="M47.88,28.9a3.42,3.42,0,0,0,6,2.19c.25-1.08.4-2.06.5-2.83a1.7,1.7,0,0,0-1.55-1.91c-1.24-.1-2.47-.14-3.67-.14A3.37,3.37,0,0,0,47.88,28.9Z"/><path class="cls-8" d="M24.41,27c-1.05-.17-2.48-.37-4.14-.53a3.43,3.43,0,0,0,2.42,5.86,3.38,3.38,0,0,0,2.21-.82c.28-.69.56-1.46.84-2.32A1.69,1.69,0,0,0,24.41,27Z"/></g></g></svg>