<svg xmlns="http://www.w3.org/2000/svg" viewBox="0 0 64 64"><defs><style>.cls-1,.cls-2{fill:#1a1a1a;}.cls-1{opacity:0;}.cls-3{fill:#fec92b;}.cls-4{fill:#fdaf18;}.cls-5{fill:#fff;}.cls-6{fill:#fc9504;}.cls-7{fill:#ffef80;}</style></defs><title>Thinking face</title><g id="Layer_2" data-name="Layer 2"><g id="Rough"><rect class="cls-1" width="64" height="64"/><path class="cls-2" d="M38,63.5a61.41,61.41,0,0,1-11.61-1.43c-6.17-1-22.81-3.86-25.5-19-1-5.53-.12-10.81,1-16.66C3,20.25,5.79,3.61,20.92.93A28.19,28.19,0,0,1,26,.5,61.51,61.51,0,0,1,37.58,1.93c6.17,1,22.81,3.86,25.5,19,1,5.53.12,10.81-1,16.66-1,6.17-3.86,22.81-19,25.49A28.19,28.19,0,0,1,38,63.5Z"/><path class="cls-3" d="M5.86,27.18h0C7.51,17.41,10.8,6.79,21.62,4.86c5-.89,10.2,0,15.2,1h0c9.77,1.65,20.39,4.94,22.32,15.76.89,5,0,10.2-1,15.2h0c-1.65,9.77-4.94,20.39-15.76,22.32-5,.89-10.2,0-15.2-1h0C17.41,56.49,6.79,53.2,4.86,42.38,4,37.35,4.89,32.18,5.86,27.18Z"/><ellipse class="cls-4" cx="14.02" cy="28.19" rx="3.44" ry="5.38" transform="matrix(0.18, -0.98, 0.98, 0.18, -16.24, 36.86)"/><ellipse class="cls-4" cx="50.15" cy="34.85" rx="3.44" ry="5.38" transform="translate(6.8 77.86) rotate(-79.56)"/><path class="cls-5" d="M40.62,20.19a3.06,3.06,0,0,1,1.47-.65,21.46,21.46,0,0,1,3.74-.26,26,26,0,0,1,2.78.21,3,3,0,0,1,1.51.65,7.49,7.49,0,0,1,.54,11.21,3,3,0,0,1-2.62.77l-7.3-1.34a2.94,2.94,0,0,1-2.16-1.64,7.46,7.46,0,0,1-.29-5.61A7.35,7.35,0,0,1,40.62,20.19Z"/><path class="cls-4" d="M28.15,52.89a44.77,44.77,0,0,0,26.2-3.21c-2.37,4.72-6,8.4-12,9.46-5,.89-10.2,0-15.2-1h0C17.41,56.49,6.79,53.2,4.86,42.38c-.12-.67-.2-1.35-.26-2A44.89,44.89,0,0,0,28.15,52.89Z"/><path class="cls-5" d="M24.27,27.74,17,26.4a3,3,0,0,1-2.17-1.65,7.48,7.48,0,0,1-.29-5.6A7.52,7.52,0,0,1,29,23a7.39,7.39,0,0,1-2.14,4A2.94,2.94,0,0,1,24.27,27.74Z"/><circle class="cls-2" cx="21" cy="20.51" r="4.37"/><circle class="cls-2" cx="44.47" cy="24.83" r="4.37"/><path class="cls-6" d="M17.34,8.44A8.81,8.81,0,0,1,24.66,8a8.54,8.54,0,0,1,5.27,5.1,1.17,1.17,0,0,1-1.74,1.35l-.08-.05c-.87-.57-1.64-1.08-2.43-1.52a20.27,20.27,0,0,0-2.41-1.14,20.48,20.48,0,0,0-5.4-1.16H17.8a1.16,1.16,0,0,1-.46-2.16Z"/><path class="cls-6" d="M40.48,16.06a8.83,8.83,0,0,1,6.74-2.89,8.56,8.56,0,0,1,6.7,3,1.16,1.16,0,0,1-.2,1.64,1.11,1.11,0,0,1-1,.22l-.1,0c-1-.23-1.91-.45-2.81-.59a18.27,18.27,0,0,0-2.65-.25,20.5,20.5,0,0,0-5.47.76h-.07a1.16,1.16,0,0,1-1.41-.84A1.18,1.18,0,0,1,40.48,16.06Z"/><path class="cls-2" d="M38.68,39.85A27.74,27.74,0,0,0,35,38a18.79,18.79,0,0,0-3.85-1.11,20.3,20.3,0,0,0-4-.31A32.33,32.33,0,0,0,23,37h0a1.14,1.14,0,0,1-1.31-1,1.16,1.16,0,0,1,.45-1.09,11.51,11.51,0,0,1,4.64-2,13.62,13.62,0,0,1,5.13,0,13,13,0,0,1,8.42,5.32,1.15,1.15,0,0,1-1.53,1.62Z"/><path class="cls-7" d="M29.93,39.74,19.09,41.46l-1.35.21h-.06a1,1,0,0,1-1.12-1.12l.7-4.56A2.13,2.13,0,0,0,16,33.68a2,2,0,0,0-2.75,1.37l-2,7.65a15.31,15.31,0,0,0-.33,6.39l.3,2a5.88,5.88,0,0,0,4.91,4.88l1.81.28a23.1,23.1,0,0,0,7.14,0,2.35,2.35,0,0,0,2-2.63,2.27,2.27,0,0,0-.67-1.21,2.21,2.21,0,0,0,1.06-2.25,2.17,2.17,0,0,0-1.4-1.72,2.21,2.21,0,0,0-.8-3.58l5.45-.86a2.14,2.14,0,0,0,1.73-2.66A2.21,2.21,0,0,0,29.93,39.74Z"/></g></g></svg>