<svg xmlns="http://www.w3.org/2000/svg" viewBox="0 0 64 64"><defs><style>.cls-1,.cls-2{fill:#1a1a1a;}.cls-1{opacity:0;}.cls-3{fill:#fec92b;}.cls-4{fill:#fc9504;}.cls-5{fill:#fdaf18;}.cls-6{fill:#ffef80;}</style></defs><title>Mewing face</title><g id="Layer_2" data-name="Layer 2"><g id="Rough"><rect class="cls-1" width="64" height="64"/><path class="cls-2" d="M46.75,2.33C42.45.72,37.93.5,33.69.5H30.83C22.36.5,10.62,1.82,6.36,13.22c-1.77,4.71-1.87,9.49-1.83,14.7C4.47,32.39,4.67,38,6.65,43a9.17,9.17,0,0,0-.28,2c0,.14,0,.29,0,.45L6.1,48.66A13.53,13.53,0,0,0,11,60.25l1.5,1.2a9.46,9.46,0,0,0,5.87,2,9.31,9.31,0,0,0,5.21-1.58L25,61a25.63,25.63,0,0,0,5.74-5.26l.21-.28h2.26c8.46,0,20.2-1.32,24.47-12.72C59.4,38,59.51,33.24,59.46,28,59.54,22.33,59.76,7.2,46.75,2.33Z"/><path class="cls-3" d="M55.46,28h0c.13-8.75-1-18.49-10.11-21.89C41.12,4.5,36.49,4.47,32,4.51h0c-8.75-.13-18.5,1-21.9,10.11C8.52,18.85,8.49,23.48,8.53,28h0c-.13,8.76,1,18.5,10.11,21.9,4.23,1.58,8.86,1.61,13.36,1.57h0c8.75.13,18.49-1,21.89-10.11C55.48,37.1,55.5,32.47,55.46,28Z"/><path class="cls-4" d="M22.28,10.93a17.17,17.17,0,0,0,4.8-1,16.09,16.09,0,0,0,2.15-1c.71-.38,1.39-.84,2.16-1.34l.06,0a1,1,0,0,1,1.37.28,1,1,0,0,1,.11.87,7.6,7.6,0,0,1-4.68,4.44,7.83,7.83,0,0,1-6.43-.39,1,1,0,0,1-.37-1.35,1,1,0,0,1,.77-.49Z"/><path class="cls-2" d="M23.12,18.46a10.17,10.17,0,0,0,5,.51,8.76,8.76,0,0,0,2.26-.77,19.05,19.05,0,0,0,2.24-1.41l0,0a.87.87,0,0,1,1.21.2.86.86,0,0,1,.09.83,7,7,0,0,1-5.31,4.11,7.27,7.27,0,0,1-3.53-.26,7,7,0,0,1-2.87-1.78.87.87,0,0,1,0-1.22.85.85,0,0,1,.84-.2Z"/><path class="cls-2" d="M43.35,16.79A10.26,10.26,0,0,0,47.85,19a8.67,8.67,0,0,0,2.39.05,18.65,18.65,0,0,0,2.59-.56h0a.87.87,0,0,1,1.07.6.9.9,0,0,1-.2.82,7.06,7.06,0,0,1-6.4,2,7.3,7.3,0,0,1-3.23-1.45A6.93,6.93,0,0,1,42,17.8a.86.86,0,0,1,1.31-1Z"/><path class="cls-2" d="M37.89,35.92a12.1,12.1,0,0,0,1.69-1.1,2.24,2.24,0,0,0,.48-.54.75.75,0,0,0,.1-.28.72.72,0,0,0-.1-.29,2.24,2.24,0,0,0-.48-.54,13.08,13.08,0,0,0-1.69-1.1l0,0a.54.54,0,0,1-.19-.75.51.51,0,0,1,.34-.25,4.15,4.15,0,0,1,2.65.24,3.65,3.65,0,0,1,1.29.9,2.66,2.66,0,0,1,0,3.62,3.79,3.79,0,0,1-1.29.9A4.29,4.29,0,0,1,38,37a.55.55,0,0,1-.41-.66.58.58,0,0,1,.26-.35Z"/><path class="cls-2" d="M37.89,31.05a13,13,0,0,0,1.69-1.11,2.43,2.43,0,0,0,.48-.53.77.77,0,0,0,.1-.29.72.72,0,0,0-.1-.29,2.22,2.22,0,0,0-.48-.53,12.08,12.08,0,0,0-1.69-1.11l0,0a.54.54,0,0,1-.19-.75.51.51,0,0,1,.34-.25,4.22,4.22,0,0,1,2.65.24,3.65,3.65,0,0,1,1.29.9,2.66,2.66,0,0,1,0,3.62,3.79,3.79,0,0,1-1.29.9,4.29,4.29,0,0,1-2.65.24.55.55,0,0,1-.41-.66.53.53,0,0,1,.26-.34Z"/><path class="cls-4" d="M27.16,39a16.88,16.88,0,0,0-3.82-5.66,16.14,16.14,0,0,0-2.68-2,23.52,23.52,0,0,0-3.14-1.55h0A.86.86,0,0,1,17,28.59a.85.85,0,0,1,.75-.52,9.5,9.5,0,0,1,4.09.75,11.37,11.37,0,0,1,3.54,2.32,10.85,10.85,0,0,1,3.39,7.49.84.84,0,0,1-.84.86.83.83,0,0,1-.79-.51Z"/><path class="cls-5" d="M32,46.73a39.63,39.63,0,0,1-22.24-7c1.31,4.47,3.9,8.26,8.88,10.12,4.23,1.58,8.86,1.61,13.36,1.57h0c8.75.13,18.49-1,21.89-10.11.22-.57.4-1.15.56-1.73A39.68,39.68,0,0,1,32,46.73Z"/><path class="cls-4" d="M53.11,13.25a14.94,14.94,0,0,0-1.57-2.61l-.4-.06A17.41,17.41,0,0,1,48.86,10a17.2,17.2,0,0,1-4.3-2.34l-.05,0A1,1,0,0,0,43,8.73a7.84,7.84,0,0,0,4.68,4.44A8,8,0,0,0,53.11,13.25Z"/><path class="cls-6" d="M27.3,50.18a2.05,2.05,0,0,0-1.19-.4,2,2,0,0,0-2.7-2.49,2,2,0,0,0-2.77-1.93l3.17-4a2,2,0,0,0-.39-2.83,2.09,2.09,0,0,0-2.75.47l-6.3,7.89-.2.26a7.3,7.3,0,0,0-.54-3.29,2,2,0,0,0-2.27-.81c-1.08.4-.93,1.39-1,2.63L10.09,49a9.53,9.53,0,0,0,3.42,8.18l0,0L15,58.32a5.38,5.38,0,0,0,6.36.27l1.41-.93a21.55,21.55,0,0,0,4.82-4.42A2.17,2.17,0,0,0,27.3,50.18Z"/></g></g></svg>