<svg xmlns="http://www.w3.org/2000/svg" viewBox="0 0 64 64"><defs><style>.cls-1,.cls-2{fill:#1a1a1a;}.cls-1{opacity:0;}.cls-3{fill:#fec92b;}.cls-4{fill:#fdaf18;}</style></defs><title>Confounded face</title><g id="Layer_2" data-name="Layer 2"><g id="Rough"><rect class="cls-1" width="64" height="64"/><path class="cls-2" d="M49.05,2.6C44.11.75,38.89.5,34,.5H30.63C20.92.5,7.45,2,2.6,15c-2,5.42-2.14,10.94-2.09,17C.42,38.48.16,55.86,15,61.4c4.94,1.85,10.16,2.1,15.06,2.1h3.36c9.71,0,23.18-1.5,28-14.45,2-5.42,2.14-10.94,2.09-17C63.58,25.52,63.84,8.14,49.05,2.6Z"/><path class="cls-3" d="M59.49,32h0c.15-10.25-1.21-21.67-11.85-25.65C42.69,4.49,37.26,4.46,32,4.51h0C21.75,4.36,10.33,5.72,6.35,16.36,4.49,21.31,4.46,26.74,4.51,32h0C4.36,42.25,5.72,53.67,16.36,57.65c4.95,1.86,10.38,1.89,15.64,1.84h0c10.25.15,21.67-1.21,25.65-11.85C59.51,42.69,59.54,37.26,59.49,32Z"/><path class="cls-4" d="M32,54A46.35,46.35,0,0,1,6,45.79C7.48,51,10.52,55.47,16.36,57.65c4.95,1.86,10.38,1.89,15.64,1.84h0c10.25.15,21.67-1.21,25.65-11.85.25-.66.46-1.34.65-2A46.44,46.44,0,0,1,32,54Z"/><ellipse class="cls-4" cx="51" cy="39.49" rx="5.56" ry="3.55"/><ellipse class="cls-4" cx="13" cy="39.49" rx="5.56" ry="3.55"/><path class="cls-2" d="M48.85,38.26a13.48,13.48,0,0,0-2.25-1.12,15,15,0,0,0-2.47-.77A15.76,15.76,0,0,0,41.59,36,18.1,18.1,0,0,0,39,36h-.12a2,2,0,0,1-2-2,1.92,1.92,0,0,1,.39-1.15,6.21,6.21,0,0,1,.69-.81c.22-.24.45-.44.68-.66a13.64,13.64,0,0,1,4.71-2.68,14,14,0,0,1,3.48-.64,16.5,16.5,0,0,1,3.45.16,1.36,1.36,0,0,1-.2,2.7h-.09a14,14,0,0,0-2.83.16,10.49,10.49,0,0,0-2.63.76,9.9,9.9,0,0,0-2.27,1.4,10.17,10.17,0,0,0-1,.9,6.26,6.26,0,0,0-.41.49,3.78,3.78,0,0,0-.29.41L39,32h0a21.36,21.36,0,0,1,3.09.37,20.2,20.2,0,0,1,3,.82,19,19,0,0,1,2.81,1.24,16.44,16.44,0,0,1,2.64,1.74A1.36,1.36,0,0,1,49,38.32Z"/><path class="cls-2" d="M13.46,36.13a16.44,16.44,0,0,1,2.64-1.74,19,19,0,0,1,2.81-1.24,20.2,20.2,0,0,1,3-.82A21.36,21.36,0,0,1,25,32h0L23.3,35.05a3.78,3.78,0,0,0-.29-.41,6.26,6.26,0,0,0-.41-.49,10.17,10.17,0,0,0-1-.9,9.9,9.9,0,0,0-2.27-1.4,10.49,10.49,0,0,0-2.63-.76,14,14,0,0,0-2.83-.16h-.08a1.36,1.36,0,0,1-.21-2.7,16.5,16.5,0,0,1,3.45-.16,14,14,0,0,1,3.48.64,13.64,13.64,0,0,1,4.71,2.68c.23.22.46.42.68.66a6.21,6.21,0,0,1,.69.81A1.95,1.95,0,0,1,25.09,36H25a18.1,18.1,0,0,0-2.55,0,15.76,15.76,0,0,0-2.54.39,15,15,0,0,0-2.47.77,13.48,13.48,0,0,0-2.25,1.12l-.1.06a1.36,1.36,0,0,1-1.59-2.19Z"/><ellipse class="cls-4" cx="19.34" cy="20.76" rx="4.66" ry="2.79" transform="translate(-1.74 1.76) rotate(-5)"/><ellipse class="cls-4" cx="44.66" cy="20.76" rx="2.79" ry="4.66" transform="translate(20.09 63.43) rotate(-85)"/><path class="cls-2" d="M46.37,47l-2.58-2.57h2.13l-4,4.53a1.75,1.75,0,0,1-2.47.14l0,0-.1-.1-4.38-4.2h2.79l-4.27,4.3a2,2,0,1,1-2.84-2.81h0L34.89,42l0,0a1.93,1.93,0,0,1,2.73,0l0,0,4.2,4.37H39.27l4.52-4,.07-.06a1.5,1.5,0,0,1,2.06.06l2.58,2.57A1.51,1.51,0,1,1,46.37,47Z"/><path class="cls-2" d="M15.5,44.87l2.58-2.57a1.49,1.49,0,0,1,2.06-.06l.07.06,4.52,4H22.12L26.32,42a1.93,1.93,0,0,1,2.73-.06l0,0,0,0,4.3,4.27a2,2,0,1,1-2.81,2.84v0l-4.27-4.3h2.79L24.73,49l-.1.1A1.75,1.75,0,0,1,22.16,49l0,0-4-4.53h2.13L17.63,47a1.51,1.51,0,1,1-2.13-2.13Z"/></g></g></svg>