<svg xmlns="http://www.w3.org/2000/svg" viewBox="0 0 64 64"><defs><style>.cls-1,.cls-2{fill:#1a1a1a;}.cls-1{opacity:0;}.cls-3{fill:#fdaf18;}.cls-4{fill:#f15a24;}.cls-5{fill:#fec92b;}.cls-6{fill:#fff;}.cls-7{fill:#c62d43;}.cls-8{fill:#ffdfb5;}</style></defs><title>Exploding head</title><g id="Layer_2" data-name="Layer 2"><g id="Rough"><rect class="cls-1" width="64" height="64"/><path class="cls-2" d="M63.49,32A5.18,5.18,0,0,0,62,28.29a5.33,5.33,0,0,0-3.76-1.58,5.22,5.22,0,0,0-4.06,1.94l-1,1.2a12.92,12.92,0,0,0-1.7-1.61,9.57,9.57,0,0,0,1-1c4.57-.85,10.12-2.43,10.12-7.69A6.87,6.87,0,0,0,60,14.28a5,5,0,0,0-1-6.36,18.93,18.93,0,0,0-8.84-4.24,4.81,4.81,0,0,0-.93-.09,5,5,0,0,0-2.38.61A11.4,11.4,0,0,0,33.17,2.48a11.64,11.64,0,0,0-17.51,5.9,9.49,9.49,0,0,0-9,7.3c-4.73,2-5.31,5.15-5.31,6.55A5.52,5.52,0,0,0,4,27,5.25,5.25,0,0,0,.51,31.89v.05C.42,38.48.16,55.86,15,61.4c4.94,1.85,10.17,2.1,15.07,2.1h3.35c9.71,0,23.18-1.5,28-14.45C63.42,43.63,63.54,38.11,63.49,32Z"/><ellipse class="cls-3" cx="32" cy="27.42" rx="7.77" ry="16.49"/><ellipse class="cls-4" cx="32" cy="28.42" rx="3.64" ry="7.38"/><path class="cls-5" d="M59.49,32h0v0a1.25,1.25,0,0,0-2.22-.8l-5.85,7.19-9.08-1-8.8-4.76a3,3,0,0,0-2.83,0l-9,4.77-9.08,1L6.74,31.18a1.26,1.26,0,0,0-2.23.8v0h0C4.36,42.25,5.72,53.67,16.36,57.65c4.95,1.86,10.38,1.89,15.64,1.84h0c10.25.15,21.67-1.21,25.65-11.85C59.51,42.69,59.54,37.26,59.49,32Z"/><path class="cls-3" d="M32,54A46.35,46.35,0,0,1,6,45.79C7.48,51,10.52,55.47,16.36,57.65c4.95,1.86,10.38,1.89,15.64,1.84h0c10.25.15,21.67-1.21,25.65-11.85.25-.66.46-1.34.65-2A46.44,46.44,0,0,1,32,54Z"/><ellipse class="cls-3" cx="51" cy="46.49" rx="5.56" ry="3.55"/><ellipse class="cls-3" cx="13" cy="46.49" rx="5.56" ry="3.55"/><circle class="cls-6" cx="43.5" cy="38.37" r="8.92"/><circle class="cls-6" cx="20.5" cy="38.37" r="8.92"/><circle class="cls-2" cx="42.34" cy="37.37" r="3.48"/><circle class="cls-2" cx="21.66" cy="37.37" r="3.48"/><path class="cls-2" d="M37.56,53.87a4.84,4.84,0,0,0,.17-1.25c0-3.16-2.56-6.13-5.73-6.13s-5.73,3-5.73,6.13A4.38,4.38,0,0,0,26.5,54a11.35,11.35,0,0,1,11.06-.16Z"/><path class="cls-7" d="M32,57c2.7,0,5-.87,5.56-3.1A11.35,11.35,0,0,0,26.5,54C27.17,56.13,29.37,57,32,57Z"/><path class="cls-8" d="M55.91,16.32c0,.05,0,.09,0,.13,0,2.51-3.49,3.61-7.81,3.61a14.89,14.89,0,0,1-5.51-.86A4.62,4.62,0,0,1,43,21C43,22.41,39.73,23,35.67,23s-7.34-.63-7.34-2.08c0-.83,1.8-2.26,4.1-3.33a12.68,12.68,0,0,1-3.16.42,12.21,12.21,0,0,1-5.89-1.5A5.85,5.85,0,0,1,11.88,15a6.38,6.38,0,0,1,.1-1,5.41,5.41,0,0,0-1.54,3.78,5.56,5.56,0,0,0,.08.82c-3.1.76-5.16,2.09-5.16,3.61,0,2.37,5,3.24,11.18,3.24,1.58,0,3.09-.06,4.45-.18,1.52,2.16,7.37,3,14.37,3,7.68,0,14-2,14.7-4.66,5-.86,8.58-1.8,8.58-4.06C58.64,18.35,57.63,17.23,55.91,16.32Z"/><path class="cls-6" d="M17.74,20.86a5.85,5.85,0,0,0,5.64-4.31,12.21,12.21,0,0,0,5.89,1.5,12.68,12.68,0,0,0,3.16-.42c-2.3,1.07-4.1,2.5-4.1,3.33,0,1.45,3.29,2.08,7.34,2.08S43,22.41,43,21a4.62,4.62,0,0,0-.41-1.76,14.89,14.89,0,0,0,5.51.86c4.32,0,7.81-1.1,7.81-3.61,0,0,0-.08,0-.13a24.8,24.8,0,0,0-9.84-2.25,7.26,7.26,0,0,0,.2-1.7A7.4,7.4,0,0,0,33,7.85a7.65,7.65,0,0,0-14,4.29,6.94,6.94,0,0,0,.14,1.38A5.37,5.37,0,0,0,12,14a6.38,6.38,0,0,0-.1,1A5.86,5.86,0,0,0,17.74,20.86Z"/><path class="cls-5" d="M56.35,10.94a15,15,0,0,0-7-3.33A1,1,0,0,0,48.21,8.7L49,16.05a1,1,0,0,0,1.59.71l5.76-4.25A1,1,0,0,0,56.35,10.94Z"/><path class="cls-5" d="M15.82,18a17.29,17.29,0,0,0-4.53,8.18,1,1,0,0,0,1,1.25l9-.39a1,1,0,0,0,.79-1.54l-4.76-7.32A1,1,0,0,0,15.82,18Z"/></g></g></svg>