<?xml version="1.0" standalone="no"?><!DOCTYPE svg PUBLIC "-//W3C//DTD SVG 1.1//EN" "http://www.w3.org/Graphics/SVG/1.1/DTD/svg11.dtd"><svg t="1712927016908" class="icon" viewBox="0 0 1024 1024" version="1.1" xmlns="http://www.w3.org/2000/svg" p-id="2955" xmlns:xlink="http://www.w3.org/1999/xlink" width="200" height="200"><path d="M307.2 244.9408m-90.112 0a90.112 90.112 0 1 0 180.224 0 90.112 90.112 0 1 0-180.224 0Z" p-id="2956"></path><path d="M720.896 244.9408m-90.112 0a90.112 90.112 0 1 0 180.224 0 90.112 90.112 0 1 0-180.224 0Z" p-id="2957"></path><path d="M307.2 511.1808m-90.112 0a90.112 90.112 0 1 0 180.224 0 90.112 90.112 0 1 0-180.224 0Z" p-id="2958"></path><path d="M720.896 511.1808m-90.112 0a90.112 90.112 0 1 0 180.224 0 90.112 90.112 0 1 0-180.224 0Z" p-id="2959"></path><path d="M307.2 777.4208m-90.112 0a90.112 90.112 0 1 0 180.224 0 90.112 90.112 0 1 0-180.224 0Z" p-id="2960"></path><path d="M720.896 777.4208m-90.112 0a90.112 90.112 0 1 0 180.224 0 90.112 90.112 0 1 0-180.224 0Z" p-id="2961"></path></svg>