<?xml version="1.0" encoding="UTF-8"?>
<!DOCTYPE svg PUBLIC "-//W3C//DTD SVG 1.1//EN" "http://www.w3.org/Graphics/SVG/1.1/DTD/svg11.dtd">
<!-- Creator: CorelDRAW 2020 (64-Bit) -->
<svg xmlns="http://www.w3.org/2000/svg" xml:space="preserve" width="500px" height="347px" version="1.1" style="shape-rendering:geometricPrecision; text-rendering:geometricPrecision; image-rendering:optimizeQuality; fill-rule:evenodd; clip-rule:evenodd"
viewBox="0 0 291.51 202.1"
 xmlns:xlink="http://www.w3.org/1999/xlink"
 xmlns:xodm="http://www.corel.com/coreldraw/odm/2003">
 <defs>
  <style type="text/css">
   <![CDATA[
    .fil0 {fill:#FEFEFE;fill-rule:nonzero}
    .fil1 {fill:white;fill-rule:nonzero}
   ]]>
  </style>
 </defs>
 <g id="图层_x0020_1">
  <metadata id="CorelCorpID_0Corel-Layer"/>
  <g id="_2817286414288">
   <path class="fil0" d="M45.26 73.17l10 10.29 -12.05 13.91 18.51 0 3.83 -4.12 3.82 4.12 18.51 0 -12.05 -13.91 10 -10.29 0 -28.9 -40.57 0 0 28.9zm-27.43 24.1l0 -7.35 7.15 0 0 7.35 16.37 0 0 -49.58 -39.78 0 0 49.58 16.26 0zm25.08 -50.95l0 -14.89 -1.56 0 0 -25.28 -39.88 0 0 25.28 -1.47 0 0 14.89 17.93 0 0 -2.45 6.95 0 0 2.45 18.03 0zm43.9 -4.31l0 -15.77 -2.55 0 0 -19.4 -38.41 0 -1.66 35.17 17.14 0 0.98 -19.3 4.9 0 0 19.3 19.6 0zm-21.26 30.47l-4.32 -4.5 0 -7.65 8.72 0 0 7.65 -4.4 4.5zm-36.75 -41.05l-2.15 0 0 -9.6 -12.64 0 0 -2.45 14.79 0 0 12.05zm-3.82 34l-7.15 0 0 -2.74 7.15 0 0 2.74zm-7.15 10.87l7.15 0 0 2.75 -7.15 0 0 -2.75zm0.2 -44.87l-4.02 0 0 -2.64 4.02 0 0 2.64zm82.2 29.49l32.92 0 0 36.55 18.12 0 0 -36.55 32.14 0 0 -15.77 -32.14 0 0 -0.59 26.85 -21.06 0 -15.88 -72.6 0 0 15.88 44.87 0 -17.24 14.01 0 7.64 -32.92 0 0 15.77zm-98.86 87.98l19.79 0 -19.79 53.2 19.3 0 19.79 -53.2 6.67 0 19.88 53.2 19.31 0 -19.89 -53.2 19.89 0 0 -15.87 -39.98 0 8.72 -23.22 -19.3 0 -8.62 23.22 -25.77 0 0 15.87zm155.98 53.1l0 -14.89 27.53 0 0 -15.77 -27.53 0 0 -11.76 26.84 0 0 -15.77 -26.84 0 0 -11.76 28.21 0 0 -15.87 -40.66 0 0 -6.47 -18.12 0 0 22.34 12.44 0 0 69.95 18.13 0zm-58.79 -69.17l6.66 -1.86 0 71.03 18.13 0 0 -91.99 -24.79 7.05 0 15.77zm98.17 13.72l0 55.06 44.88 0 0 -55.06 -13.82 0 0 -12.44 14.21 0 0 -15.87 -14.21 0 0 -8.53 -18.22 0 0 36.84 -12.84 0zm77.4 39.29l9.6 0 0 15.77 -26.55 0 -1.86 -23.12 -11.07 2.65 0 -15.78 9.9 -2.35 -1.28 -16.95 -9.01 0 0 -15.77 7.84 0 -1.57 -20.58 18.13 0 0.19 3.14 15.28 0 0 12.64 -14.3 0 0.39 4.8 13.91 0 0 15.77 -12.63 0 0.98 12.54 11.65 -2.84 0 15.87 -10.48 2.55 0.88 11.66zm-59.17 -23.52l8.52 0 0 23.52 -8.52 0 0 -23.52z"/>
   <g>
    <g>
     <g>
      <path class="fil1" d="M207.26 4.95l2.73 -2.01 -0.16 0 1.04 -0.64 -0.08 0.16c3.21,-1.88 6.77,-2.68 10.68,-2.41l0.16 0 2.49 0.32 0.56 0.16 16.05 3.21c4.93,1.02 7.57,2.92 7.95,5.7l0.16 0.4 6.58 25.21 0.24 0.48 -8.51 -0.48c-6.85,-0.43 -11.21,1.15 -13.08,4.73l-11.96 20.96 -0.96 -0.17 -0.08 -0.08 -16.3 -3.37c-4.07,-1.01 -6.47,-2.62 -7.22,-4.81l-0.08 -0.16 -1.13 -3.38 -6.02 -23.51 -0.24 -1.45c-0.11,-2.14 1.31,-4.55 4.26,-7.22l12.28 -11.24 0.64 -0.4 0 0zm56.91 35.96l3.37 0.56 -0.16 -0.08 1.21 0.32 -0.16 0c3.64,1.02 6.74,3 9.31,5.94l0.08 0.08 1.6 2.01 0.32 0.56 9.15 13.73c2.79,4.22 3.35,7.46 1.69,9.71l-0.16 0.24 -12.92 22.4c-0.91,2.78 -4.04,4.01 -9.4,3.69l-16.61 -1.05c-6.96,-0.42 -12.39,-3.53 -16.3,-9.31l0 -0.08 -9.15 -13.8 -0.08 -0.16c-2.03,-3.32 -2.73,-5.94 -2.08,-7.87l0.16 -0.48 0.08 -0.16 12.6 -22.16 1.12 -1.84 0 -0.08c1.13,-2.47 4.12,-3.54 8.99,-3.22l16.62 0.97 0.72 0.08 0 0zm3.37 36.68c0.43,-0.96 0.46,-1.82 0.08,-2.57 -0.42,-0.69 -1.15,-1.04 -2.16,-1.04 -1.02,-0.05 -2.01,0.24 -2.97,0.88 -0.97,0.7 -1.66,1.53 -2.09,2.49 -0.38,1.02 -0.4,1.87 -0.08,2.57 0.43,0.7 1.15,1.07 2.17,1.12 1.01,0 2,-0.32 2.97,-0.96 1.01,-0.64 1.71,-1.47 2.08,-2.49l0 0zm-5.13 12.36c0.37,-0.96 0.37,-1.79 0,-2.48 -0.43,-0.75 -1.15,-1.13 -2.17,-1.13 -1.02,-0.05 -2.01,0.27 -2.97,0.97 -0.97,0.64 -1.63,1.44 -2.01,2.4 -0.43,1.02 -0.45,1.9 -0.08,2.65 0.38,0.7 1.07,1.07 2.09,1.13 1.01,0 2.03,-0.32 3.05,-0.97 0.96,-0.69 1.66,-1.55 2.09,-2.57l0 0zm12.68 0.41c0.37,-0.97 0.35,-1.8 -0.08,-2.49 -0.38,-0.7 -1.07,-1.07 -2.09,-1.13 -1.02,-0.05 -2.01,0.27 -2.97,0.97 -0.96,0.64 -1.63,1.44 -2.01,2.4 -0.42,1.02 -0.45,1.9 -0.08,2.65 0.38,0.7 1.07,1.07 2.09,1.13 1.02,0.05 2.01,-0.27 2.97,-0.97 1.02,-0.69 1.74,-1.55 2.17,-2.56l0 0zm5.14 -12.37c0.42,-0.96 0.42,-1.82 0,-2.56 -0.38,-0.65 -1.07,-0.99 -2.09,-1.05 -1.02,-0.05 -2.01,0.24 -2.97,0.88 -0.96,0.7 -1.66,1.53 -2.09,2.49 -0.37,1.02 -0.4,1.88 -0.08,2.57 0.43,0.7 1.15,1.07 2.17,1.13 1.02,0.05 1.98,-0.27 2.89,-0.97 1.07,-0.64 1.79,-1.47 2.17,-2.49l0 0zm-35.88 -3.61c0.58,-0.96 0.8,-2.11 0.64,-3.45 -0.11,-1.39 -0.56,-2.54 -1.37,-3.45 -0.75,-0.97 -1.6,-1.39 -2.57,-1.29 -0.91,-0.05 -1.66,0.4 -2.24,1.37 -0.59,0.96 -0.86,2.14 -0.81,3.53 0.16,1.34 0.62,2.49 1.37,3.45 0.8,0.91 1.66,1.34 2.57,1.29 1.01,0 1.82,-0.49 2.41,-1.45l0 0zm-25.53 -39.73c-0.22,-0.91 -0.67,-1.77 -1.37,-2.57 -0.75,-0.75 -1.58,-1.21 -2.48,-1.37 -0.91,-0.1 -1.61,0.08 -2.09,0.57 -0.54,0.58 -0.72,1.33 -0.56,2.24 0.21,0.97 0.69,1.82 1.44,2.57 0.75,0.75 1.58,1.21 2.49,1.37 0.91,0.16 1.63,-0.06 2.17,-0.65 0.43,-0.48 0.56,-1.2 0.4,-2.16l0 0zm-5.7 7.38c-0.22,-0.91 -0.67,-1.76 -1.37,-2.57 -0.75,-0.75 -1.57,-1.2 -2.48,-1.36 -0.91,-0.11 -1.61,0.08 -2.09,0.56 -0.54,0.59 -0.72,1.34 -0.56,2.25 0.21,0.96 0.69,1.82 1.44,2.57 0.75,0.75 1.58,1.2 2.49,1.36 0.91,0.16 1.63,-0.05 2.17,-0.64 0.43,-0.48 0.56,-1.2 0.4,-2.17l0 0zm-6.1 7.63c-0.22,-0.91 -0.67,-1.77 -1.37,-2.57 -0.75,-0.75 -1.57,-1.21 -2.48,-1.37 -0.91,-0.1 -1.61,0.08 -2.09,0.57 -0.54,0.58 -0.72,1.33 -0.56,2.24 0.21,0.97 0.69,1.82 1.44,2.57 0.75,0.75 1.58,1.21 2.49,1.37 0.91,0.16 1.63,-0.06 2.17,-0.64 0.43,-0.49 0.56,-1.21 0.4,-2.17l0 0zm15.41 -39.41l-2.09 -0.33c-1.98,0 -3.82,0.46 -5.54,1.37l-2.16 1.52 -11.16 10.2 14.61 2.97c3.64,0.8 6.88,-0.08 9.71,-2.65l11.16 -10.04 -14.53 -3.04 0 0zm49.29 45.35l-1.29 -1.69c-1.39,-1.44 -3.02,-2.46 -4.89,-3.05l-2.65 -0.4 -15.09 -0.88 8.34 12.52c2.04,3.16 4.95,4.84 8.75,5.06l15.01 0.96 -8.18 -12.52z"/>
     </g>
    </g>
   </g>
  </g>
 </g>
</svg>
